<svg xmlns="http://www.w3.org/2000/svg" fill="currentColor">
  <path fill="#fff" d="M21.9568 31.7165c-2.1446 0-2.7546-1.9016-2.7546-1.9016s-1.8981 1.9016-4.5109 1.9016c-2.1138 0-3.8269-1.4324-3.8269-4.1922 0-3.55 2.1445-7.1742 7.2655-7.1742.7333 0 1.4482.1173 2.126.389.1911.0802.3759.1667.5731.2346.4191.142.8196-.0618 1.2325-.1791.2835-.0802.5793-.1605.8689-.1111.5177.0864.8936.5804 1.0045 1.0928s.0247 1.0496-.0616 1.5682c-.1972 1.136-.5731 2.3708-.4745 3.5192.0431.5063-.0493.9755.2526 1.4262.2157.321.567.5248.9614.5248.6101 0 .8935-.284 1.3619-.7532.2526-.2532.3944-.3581.6101-.3581.3204 0 .4991.2901.4991.5001 0 .3951-.2157.6791-.5731 1.1483-.7518.9694-2.2924 2.3647-4.5479 2.3647h-.0061Zm-3.5065-9.792c-2.0397 0-2.9333 3.7661-2.9333 5.7357 0 .9322.4314 1.6855 1.214 1.6855.6779 0 1.3927-.6113 1.8611-1.6855.4313-.9323.9305-3.297.9305-4.6985 0-.6483-.3204-1.0372-1.0723-1.0372Z"/>
  <path fill="#fff" d="M41.1035 28.0548c.2526-.2532.3944-.3581.61-.3581.3205 0 .4992.2901.4992.5001 0 .3951-.2157.6791-.5731 1.1483-.7518.9693-2.2924 2.3647-4.5479 2.3647-2.2554 0-2.7916-1.7905-2.7916-1.7905s-1.861 1.7905-4.4369 1.7905-3.8639-1.5065-3.8639-4.1613c0-4.0502 2.7916-7.2051 6.7972-7.2051 1.251 0 2.2924.3951 2.6129.6112.5361-2.0806 1.0353-4.1242 1.0353-6.0258 0-1.1854-.6101-1.7596-1.3619-1.7596-.3575 0-.5362-.142-.5362-.4322 0-.7532 1.8981-1.9387 3.9378-1.9387 1.8611 0 3.0443 1.0064 3.0443 2.7969 0 3.1919-3.0073 9.3969-3.0073 13.731 0 .9323.5731 1.4694 1.2202 1.4694.61 0 .8935-.284 1.3619-.7532v.0124Zm-7.586-6.1309c-2.0028 0-2.8286 4.0193-2.8286 5.9889 0 .8952.3575 1.4694 1.1463 1.4694.6778 0 1.3927-.6113 1.861-1.7226.3944-.8952.9675-3.2599.9675-4.6984 0-.6483-.3944-1.0373-1.1462-1.0373Z"/>
  <path fill="#fff" d="M52.8058 27.5919c.2835-.2532.5361-.4322.7518-.4322.2835 0 .4314.2161.4314.4322 0 .3581-.1787.6482-.7148 1.2162-1.1832 1.2534-2.9334 3.013-6.409 3.013s-5.7249-1.5065-5.7249-4.9454c0-3.439 2.7916-6.6001 7.549-6.6001 2.4342 0 3.5434 1.0743 3.5434 2.6178 0 2.0436-2.3972 4.0193-5.9776 4.3033 0 1.2534.9675 2.2227 2.6869 2.2227 1.824 0 3.075-1.1854 3.8638-1.8275Zm-3.186-4.9516c0-.5372-.2896-.8273-.8565-.8273-1.0723 0-2.5082 1.7596-2.5082 3.8711 2.0398-.3952 3.3647-2.1856 3.3647-3.05v.0062Z"/>
  <path fill="#fff" d="M58.8142 29.0245c.4314 0 .7149-.142 1.0045-.3581.2157-.179.3205-.284.4992-.284.2526 0 .3944.179.3944.3951 0 .284-.1787.5742-.4314.8953-.8258 1.0742-1.898 2.0436-3.7591 2.0436-2.3972 0-3.5064-1.5065-3.5064-3.371 0-3.2599 2.7546-7.8534 2.7546-13.41 0-1.1855-.6101-1.7596-1.3927-1.7596-.3205 0-.4992-.142-.4992-.4322 0-.7533 1.8981-1.9387 3.9378-1.9387 1.8611 0 3.0443 1.0064 3.0443 2.7969 0 3.0129-2.8656 10.2921-2.8656 13.731 0 1.2163.3205 1.6855.8258 1.6855l-.0062.0062ZM8.83694 19.0654l-1.71316 8.4337c-.2465 1.2163-.36975 2.0066-.36975 2.3647 0 .3581.08628.7409.2465 1.1545C5.68177 31.6728 4.49858 32 3.45097 32c-.66555 0-.99832-.2717-.99832-.8088 0-.284.12941-1.0805.38207-2.4017l2.01512-10.0698C1.61456 17.9911 0 16.9107 0 15.4906c0-.2963.0616252-.6729.191036-1.136C1.57142 15.4968 3.24144 16.318 5.20726 16.8304l1.33109-6.6494c.21568-1.08665 1.60223-7.27303 1.30027-7.64347 1.70083-.6421 3.03808-.79645 3.69748-.79645.7949 0-.6039 6.64943-1.0168 8.67452l-1.32494 6.7667c3.67284 0 6.68004-.9076 9.01564-2.7289 2.3356-1.8213 3.5003-4.1489 3.5003-6.99517 0-1.56203-.6101-2.82153-1.8303-3.77851-1.2201-.95697-2.8347-1.43237-4.8437-1.43237-5.98368 0-10.78422 2.51283-14.401567 7.53231C.326611 8.98321.17255 8.36581.17255 7.91511c0-1.93247 1.73164-3.73529 5.18877-5.40845C8.81845.833495 12.5652 0 16.5893 0c6.1131 0 9.1697 2.25352 9.1697 6.76674 0 3.29076-1.5838 6.16786-4.7574 8.62516-3.1737 2.4572-6.8773 3.692-11.11705 3.692l-1.05378-.0185h.00617Zm66.50496 0-1.7131 8.4337c-.2465 1.2163-.3698 2.0066-.3698 2.3647 0 .3581.0863.7409.2465 1.1545-1.3187.6545-2.5019.9817-3.5495.9817-.6656 0-.9983-.2717-.9983-.8088 0-.284.1294-1.0805.382-2.4017l2.0151-10.0698c-3.2352-.7286-4.8498-1.809-4.8498-3.2291 0-.2963.0616-.6729.191-1.136 1.3804 1.1422 3.0505 1.9634 5.0163 2.4758l1.3311-6.6494c.2156-1.08665 1.6022-7.27303 1.3002-7.64347 1.7009-.6421 3.0381-.79645 3.6975-.79645.7949 0-.6039 6.64943-1.0168 8.67452l-1.3249 6.7667c3.6728 0 6.68-.9076 9.0156-2.7289 2.3356-1.8213 3.5003-4.1489 3.5003-6.99517 0-1.56203-.6101-2.82153-1.8303-3.77851-1.2201-.95697-2.8347-1.43237-4.8436-1.43237-5.9838 0-10.7843 2.51283-14.4017 7.53231-.3081-.79645-.4621-1.41385-.4621-1.86455 0-1.93247 1.7316-3.73529 5.1887-5.40845C75.3235.833495 79.0702 0 83.0943 0c6.1131 0 9.1697 2.25352 9.1697 6.76674 0 3.29076-1.5838 6.16786-4.7574 8.62516-3.1737 2.4572-6.8773 3.692-11.117 3.692l-1.0538-.0185h.0061Zm28.6981 8.4154c.284-.247.537-.426.746-.426.284 0 .425.2161.425.426 0 .3581-.215.6421-.745 1.2101-1.208 1.2101-2.983 2.9882-6.2861 2.9882-3.303 0-5.6817-1.741-5.6817-4.7293 0-3.6982 2.8408-6.7235 7.4195-6.7235 2.6993 0 3.6913 1.136 3.6913 2.4882 0 1.457-.924 2.2782-2.095 2.2782-.814 0-1.418-.4631-1.418-1.1731 0-.7841.53-1.1051.567-1.5312 0-.284-.215-.463-.641-.463-1.0286 0-2.5569 1.8831-2.5569 4.4144 0 2.0992 1.3496 3.0623 2.8409 3.0623 1.491 0 2.878-1.0681 3.728-1.8151l.006-.0062Z"/>
  <path fill="#fff" d="M116.538 27.5855c.283 0 .462.179.462.426 0 .3889-.247.9261-.604 1.4571-.709 1.0681-1.491 2.0991-3.445 2.0991-3.087 0-3.445-4.7293-3.802-4.7293 0 0-.85 3.1302-.85 3.8094 0 .605-.216.747-.746.747-1.066 0-2.483.1791-3.057.1791-.425 0-.671-.1791-.671-.7841 0-3.0932 3.599-14.6572 3.599-19.9606 0-1.17311-.604-1.74113-1.35-1.74113-.32 0-.53-.142-.53-.426 0-.74706 1.88-1.92013 3.907-1.92013 1.88 0 3.02.99402 3.02 2.77214 0 2.24122-2.995 14.12622-2.995 15.54622 1.066 0 2.132-1.2101 2.132-2.0621 0-.389-.247-.4631-.247-.815 0-.7471 2.2-1.8893 3.833-1.8893.709 0 1.03.284 1.03.8212 0 1.4941-1.529 3.4142-4.154 4.8713.388 1.2472 1.596 2.3153 2.699 2.3153 1.029 0 1.208-.7101 1.775-.7101l-.006-.0061Zm-28.0268 4.131c-2.1445 0-2.7546-1.9016-2.7546-1.9016s-1.898 1.9016-4.5109 1.9016c-2.1137 0-3.8269-1.4324-3.8269-4.1922 0-3.55 2.1445-7.1742 7.2655-7.1742.7334 0 1.4482.1173 2.1261.389.191.0802.3759.1667.5731.2346.419.142.8196-.0618 1.2325-.1791.2834-.0802.5792-.1605.8689-.1111.5176.0864.8935.5804 1.0045 1.0928.1109.5124.0246 1.0496-.0617 1.5682-.1972 1.136-.5731 2.3708-.4745 3.5192.0432.5063-.0493.9755.2527 1.4262.2157.321.5669.5248.9613.5248.6101 0 .8936-.284 1.3619-.7532.2527-.2532.3944-.3581.6101-.3581.3204 0 .4992.2901.4992.5001 0 .3951-.2157.6791-.5731 1.1483-.7519.9694-2.2925 2.3647-4.5479 2.3647h-.0062Zm-3.5064-9.792c-2.0398 0-2.9333 3.7661-2.9333 5.7357 0 .9322.4313 1.6855 1.214 1.6855.6778 0 1.3927-.6113 1.861-1.6855.4314-.9323.9306-3.297.9306-4.6985 0-.6483-.3205-1.0372-1.0723-1.0372Z"/>
</svg>
